# xmcd
#
# Track frame offsets: 
#        150
#        22307
#        42338
#        63143
#        90030
#        108018
#        124445
#        145566
#        157937
#        181115
#        212840
#        247304
#
# Disc length: 3500 seconds
#
# Revision: 0
# Processed by: cddbd v1.5.2PL0 Copyright (c) Steve Scherf et al.
# Submitted via: ExactAudioCopy v1.0b6
#
DISCID=9b0daa0c
DTITLE=麗蘭 - 25
DYEAR=2016
DGENRE=Blues
TTITLE0=マニフェスト(we are the Lay-Run) 
TTITLE1=何はなくてもR&R
TTITLE2=しり切れトンボのブルース
TTITLE3=Mr.Blues Man(B.B.KINGに捧ぐ)
TTITLE4=清掃の唄
TTITLE5=SONG for J.J.cale
TTITLE6=太陽のシェリー
TTITLE7=Go Johnny Go(J.Winterに捧ぐ)
TTITLE8=夜風
TTITLE9=Yes We Can
TTITLE10=紅 く・れ・な・い
TTITLE11=サフラン
EXTD=
EXTT0=
EXTT1=
EXTT2=
EXTT3=
EXTT4=
EXTT5=
EXTT6=
EXTT7=
EXTT8=
EXTT9=
EXTT10=
EXTT11=
PLAYORDER=
